<svg width="242" height="278" viewBox="0 0 242 278" fill="none" xmlns="http://www.w3.org/2000/svg">
<g filter="url(#filter0_dd_193_1953)">
<mask id="path-1-inside-1_193_1953" fill="white">
<path d="M211.1 263.1H34.6001L10.1001 186.1H101.6L133.6 169.1H231.6L211.1 263.1ZM197.1 152.1H130.6L98.1001 169.1H46.1001V92.1H197.1V152.1ZM113.1 6.10001C117.518 6.10001 121.1 9.68173 121.1 14.1V54.1H162.1C166.518 54.1 170.1 57.6817 170.1 62.1V80.1H73.1001V54.1H107.1V6.10001H113.1ZM143.1 6.10001C147.518 6.10001 151.1 9.68173 151.1 14.1V35.1H138.1V6.10001H143.1Z"/>
</mask>
<path d="M211.1 263.1H34.6001L10.1001 186.1H101.6L133.6 169.1H231.6L211.1 263.1ZM197.1 152.1H130.6L98.1001 169.1H46.1001V92.1H197.1V152.1ZM113.1 6.10001C117.518 6.10001 121.1 9.68173 121.1 14.1V54.1H162.1C166.518 54.1 170.1 57.6817 170.1 62.1V80.1H73.1001V54.1H107.1V6.10001H113.1ZM143.1 6.10001C147.518 6.10001 151.1 9.68173 151.1 14.1V35.1H138.1V6.10001H143.1Z" fill="#87A2FF"/>
<path d="M211.1 263.1V264.1H211.906L212.077 263.313L211.1 263.1ZM34.6001 263.1L33.6472 263.403L33.8689 264.1H34.6001V263.1ZM10.1001 186.1V185.1H8.73252L9.14717 186.403L10.1001 186.1ZM101.6 186.1V187.1H101.849L102.069 186.983L101.6 186.1ZM133.6 169.1V168.1H133.351L133.131 168.217L133.6 169.1ZM231.6 169.1L232.577 169.313L232.842 168.1H231.6V169.1ZM197.1 152.1V153.1H198.1V152.1H197.1ZM130.6 152.1V151.1H130.354L130.137 151.214L130.6 152.1ZM98.1001 169.1V170.1H98.3458L98.5636 169.986L98.1001 169.1ZM46.1001 169.1H45.1001V170.1H46.1001V169.1ZM46.1001 92.1V91.1H45.1001V92.1H46.1001ZM197.1 92.1H198.1V91.1H197.1V92.1ZM121.1 14.1H122.1V14.1H121.1ZM121.1 54.1H120.1V55.1H121.1V54.1ZM162.1 54.1V53.1V53.1V54.1ZM170.1 62.1H171.1V62.1H170.1ZM170.1 80.1V81.1H171.1V80.1H170.1ZM73.1001 80.1H72.1001V81.1H73.1001V80.1ZM73.1001 54.1V53.1H72.1001V54.1H73.1001ZM107.1 54.1V55.1H108.1V54.1H107.1ZM107.1 6.10001V5.10001H106.1V6.10001H107.1ZM151.1 35.1V36.1H152.1V35.1H151.1ZM138.1 35.1H137.1V36.1H138.1V35.1ZM138.1 6.10001V5.10001H137.1V6.10001H138.1ZM211.1 263.1V262.1H34.6001V263.1V264.1H211.1V263.1ZM34.6001 263.1L35.553 262.797L11.053 185.797L10.1001 186.1L9.14717 186.403L33.6472 263.403L34.6001 263.1ZM10.1001 186.1V187.1H101.6V186.1V185.1H10.1001V186.1ZM101.6 186.1L102.069 186.983L134.069 169.983L133.6 169.1L133.131 168.217L101.131 185.217L101.6 186.1ZM133.6 169.1V170.1H231.6V169.1V168.1H133.6V169.1ZM231.6 169.1L230.623 168.887L210.123 262.887L211.1 263.1L212.077 263.313L232.577 169.313L231.6 169.1ZM197.1 152.1V151.1H130.6V152.1V153.1H197.1V152.1ZM130.6 152.1L130.137 151.214L97.6366 168.214L98.1001 169.1L98.5636 169.986L131.064 152.986L130.6 152.1ZM98.1001 169.1V168.1H46.1001V169.1V170.1H98.1001V169.1ZM46.1001 169.1H47.1001V92.1H46.1001H45.1001V169.1H46.1001ZM46.1001 92.1V93.1H197.1V92.1V91.1H46.1001V92.1ZM197.1 92.1H196.1V152.1H197.1H198.1V92.1H197.1ZM113.1 6.10001V7.10001C116.966 7.10001 120.1 10.234 120.1 14.1H121.1H122.1C122.1 9.12944 118.071 5.10001 113.1 5.10001V6.10001ZM121.1 14.1H120.1V54.1H121.1H122.1V14.1H121.1ZM121.1 54.1V55.1H162.1V54.1V53.1H121.1V54.1ZM162.1 54.1V55.1C165.966 55.1 169.1 58.234 169.1 62.1H170.1H171.1C171.1 57.1294 167.071 53.1 162.1 53.1V54.1ZM170.1 62.1H169.1V80.1H170.1H171.1V62.1H170.1ZM170.1 80.1V79.1H73.1001V80.1V81.1H170.1V80.1ZM73.1001 80.1H74.1001V54.1H73.1001H72.1001V80.1H73.1001ZM73.1001 54.1V55.1H107.1V54.1V53.1H73.1001V54.1ZM107.1 54.1H108.1V6.10001H107.1H106.1V54.1H107.1ZM107.1 6.10001V7.10001H113.1V6.10001V5.10001H107.1V6.10001ZM143.1 6.10001V7.10001C146.966 7.10001 150.1 10.234 150.1 14.1H151.1H152.1C152.1 9.12944 148.071 5.10001 143.1 5.10001V6.10001ZM151.1 14.1H150.1V35.1H151.1H152.1V14.1H151.1ZM151.1 35.1V34.1H138.1V35.1V36.1H151.1V35.1ZM138.1 35.1H139.1V6.10001H138.1H137.1V35.1H138.1ZM138.1 6.10001V7.10001H143.1V6.10001V5.10001H138.1V6.10001Z" fill="black" mask="url(#path-1-inside-1_193_1953)"/>
</g>
<defs>
<filter id="filter0_dd_193_1953" x="9.72748e-05" y="5.72205e-06" width="241.7" height="277.2" filterUnits="userSpaceOnUse" color-interpolation-filters="sRGB">
<feFlood flood-opacity="0" result="BackgroundImageFix"/>
<feColorMatrix in="SourceAlpha" type="matrix" values="0 0 0 0 0 0 0 0 0 0 0 0 0 0 0 0 0 0 127 0" result="hardAlpha"/>
<feOffset dy="4"/>
<feGaussianBlur stdDeviation="0.45"/>
<feComposite in2="hardAlpha" operator="out"/>
<feColorMatrix type="matrix" values="0 0 0 0 0 0 0 0 0 0 0 0 0 0 0 0 0 0 0.25 0"/>
<feBlend mode="normal" in2="BackgroundImageFix" result="effect1_dropShadow_193_1953"/>
<feColorMatrix in="SourceAlpha" type="matrix" values="0 0 0 0 0 0 0 0 0 0 0 0 0 0 0 0 0 0 127 0" result="hardAlpha"/>
<feOffset dy="4"/>
<feGaussianBlur stdDeviation="5.05"/>
<feComposite in2="hardAlpha" operator="out"/>
<feColorMatrix type="matrix" values="0 0 0 0 0 0 0 0 0 0 0 0 0 0 0 0 0 0 0.25 0"/>
<feBlend mode="normal" in2="effect1_dropShadow_193_1953" result="effect2_dropShadow_193_1953"/>
<feBlend mode="normal" in="SourceGraphic" in2="effect2_dropShadow_193_1953" result="shape"/>
</filter>
</defs>
</svg>
