<svg width="244" height="342" viewBox="0 0 244 342" fill="none" xmlns="http://www.w3.org/2000/svg">
<g filter="url(#filter0_dd_119_2067)">
<mask id="path-1-inside-1_119_2067" fill="white">
<path d="M211.1 263.1H34.6L10.1 186.1H101.6L133.6 169.1H231.6L211.1 263.1ZM197.1 152.1H130.6L98.1 169.1H46.1V92.1H197.1V152.1ZM113.1 6.10001C117.518 6.10001 121.1 9.68173 121.1 14.1V54.1H162.1C166.518 54.1 170.1 57.6817 170.1 62.1V80.1H73.1V54.1H107.1V6.10001H113.1ZM143.1 6.10001C147.518 6.10001 151.1 9.68173 151.1 14.1V35.1H138.1V6.10001H143.1Z"/>
</mask>
<path d="M211.1 263.1H34.6L10.1 186.1H101.6L133.6 169.1H231.6L211.1 263.1ZM197.1 152.1H130.6L98.1 169.1H46.1V92.1H197.1V152.1ZM113.1 6.10001C117.518 6.10001 121.1 9.68173 121.1 14.1V54.1H162.1C166.518 54.1 170.1 57.6817 170.1 62.1V80.1H73.1V54.1H107.1V6.10001H113.1ZM143.1 6.10001C147.518 6.10001 151.1 9.68173 151.1 14.1V35.1H138.1V6.10001H143.1Z" fill="#87A2FF"/>
<path d="M211.1 263.1V264.1H211.905L212.077 263.313L211.1 263.1ZM34.6 263.1L33.6471 263.403L33.8688 264.1H34.6V263.1ZM10.1 186.1V185.1H8.73242L9.14707 186.403L10.1 186.1ZM101.6 186.1V187.1H101.849L102.069 186.983L101.6 186.1ZM133.6 169.1V168.1H133.351L133.131 168.217L133.6 169.1ZM231.6 169.1L232.577 169.313L232.842 168.1H231.6V169.1ZM197.1 152.1V153.1H198.1V152.1H197.1ZM130.6 152.1V151.1H130.354L130.136 151.214L130.6 152.1ZM98.1 169.1V170.1H98.3457L98.5635 169.986L98.1 169.1ZM46.1 169.1H45.1V170.1H46.1V169.1ZM46.1 92.1V91.1H45.1V92.1H46.1ZM197.1 92.1H198.1V91.1H197.1V92.1ZM121.1 14.1H122.1V14.1H121.1ZM121.1 54.1H120.1V55.1H121.1V54.1ZM162.1 54.1V53.1V53.1V54.1ZM170.1 62.1H171.1V62.1H170.1ZM170.1 80.1V81.1H171.1V80.1H170.1ZM73.1 80.1H72.1V81.1H73.1V80.1ZM73.1 54.1V53.1H72.1V54.1H73.1ZM107.1 54.1V55.1H108.1V54.1H107.1ZM107.1 6.10001V5.10001H106.1V6.10001H107.1ZM151.1 35.1V36.1H152.1V35.1H151.1ZM138.1 35.1H137.1V36.1H138.1V35.1ZM138.1 6.10001V5.10001H137.1V6.10001H138.1ZM211.1 263.1V262.1H34.6V263.1V264.1H211.1V263.1ZM34.6 263.1L35.5529 262.797L11.0529 185.797L10.1 186.1L9.14707 186.403L33.6471 263.403L34.6 263.1ZM10.1 186.1V187.1H101.6V186.1V185.1H10.1V186.1ZM101.6 186.1L102.069 186.983L134.069 169.983L133.6 169.1L133.131 168.217L101.131 185.217L101.6 186.1ZM133.6 169.1V170.1H231.6V169.1V168.1H133.6V169.1ZM231.6 169.1L230.623 168.887L210.123 262.887L211.1 263.1L212.077 263.313L232.577 169.313L231.6 169.1ZM197.1 152.1V151.1H130.6V152.1V153.1H197.1V152.1ZM130.6 152.1L130.136 151.214L97.6365 168.214L98.1 169.1L98.5635 169.986L131.063 152.986L130.6 152.1ZM98.1 169.1V168.1H46.1V169.1V170.1H98.1V169.1ZM46.1 169.1H47.1V92.1H46.1H45.1V169.1H46.1ZM46.1 92.1V93.1H197.1V92.1V91.1H46.1V92.1ZM197.1 92.1H196.1V152.1H197.1H198.1V92.1H197.1ZM113.1 6.10001V7.10001C116.966 7.10001 120.1 10.234 120.1 14.1H121.1H122.1C122.1 9.12944 118.071 5.10001 113.1 5.10001V6.10001ZM121.1 14.1H120.1V54.1H121.1H122.1V14.1H121.1ZM121.1 54.1V55.1H162.1V54.1V53.1H121.1V54.1ZM162.1 54.1V55.1C165.966 55.1 169.1 58.234 169.1 62.1H170.1H171.1C171.1 57.1294 167.071 53.1 162.1 53.1V54.1ZM170.1 62.1H169.1V80.1H170.1H171.1V62.1H170.1ZM170.1 80.1V79.1H73.1V80.1V81.1H170.1V80.1ZM73.1 80.1H74.1V54.1H73.1H72.1V80.1H73.1ZM73.1 54.1V55.1H107.1V54.1V53.1H73.1V54.1ZM107.1 54.1H108.1V6.10001H107.1H106.1V54.1H107.1ZM107.1 6.10001V7.10001H113.1V6.10001V5.10001H107.1V6.10001ZM143.1 6.10001V7.10001C146.966 7.10001 150.1 10.234 150.1 14.1H151.1H152.1C152.1 9.12944 148.071 5.10001 143.1 5.10001V6.10001ZM151.1 14.1H150.1V35.1H151.1H152.1V14.1H151.1ZM151.1 35.1V34.1H138.1V35.1V36.1H151.1V35.1ZM138.1 35.1H139.1V6.10001H138.1H137.1V35.1H138.1ZM138.1 6.10001V7.10001H143.1V6.10001V5.10001H138.1V6.10001Z" fill="black" mask="url(#path-1-inside-1_119_2067)"/>
</g>
<mask id="path-3-outside-2_119_2067" maskUnits="userSpaceOnUse" x="0.0999985" y="296.1" width="236" height="31" fill="black">
<rect fill="white" x="0.0999985" y="296.1" width="236" height="31"/>
<path d="M6.75696 319.1H1.81378L9.34574 297.282H15.2903L22.8116 319.1H17.8685L12.4033 302.268H12.2328L6.75696 319.1ZM6.44801 310.524H18.1241V314.125H6.44801V310.524ZM42.604 325.236V316.479H42.4655C42.2524 316.934 41.9506 317.385 41.5599 317.832C41.1764 318.273 40.6757 318.638 40.0578 318.93C39.447 319.221 38.7013 319.366 37.8206 319.366C36.5777 319.366 35.452 319.047 34.4435 318.408C33.442 317.761 32.6466 316.813 32.0571 315.563C31.4747 314.306 31.1835 312.765 31.1835 310.939C31.1835 309.064 31.4854 307.506 32.0891 306.263C32.6928 305.013 33.4953 304.079 34.4967 303.461C35.5053 302.836 36.6097 302.523 37.8099 302.523C38.7261 302.523 39.4896 302.68 40.1004 302.992C40.7183 303.297 41.2155 303.681 41.5919 304.143C41.9754 304.597 42.2666 305.045 42.4655 305.485H42.6572V302.736H47.1317V325.236H42.604ZM39.2588 315.755C39.9903 315.755 40.6082 315.556 41.1125 315.158C41.6239 314.753 42.0145 314.189 42.2844 313.464C42.5614 312.74 42.6999 311.891 42.6999 310.918C42.6999 309.945 42.5649 309.1 42.295 308.383C42.0251 307.665 41.6345 307.111 41.1232 306.721C40.6118 306.33 39.9903 306.135 39.2588 306.135C38.5131 306.135 37.8845 306.337 37.3732 306.742C36.8618 307.147 36.4747 307.708 36.2119 308.425C35.9491 309.143 35.8178 309.974 35.8178 310.918C35.8178 311.87 35.9491 312.712 36.2119 313.443C36.4818 314.167 36.8689 314.736 37.3732 315.148C37.8845 315.552 38.5131 315.755 39.2588 315.755ZM68.4688 312.133V302.736H73.0071V319.1H68.6499V316.128H68.4794C68.1101 317.087 67.4957 317.857 66.6364 318.439C65.7841 319.022 64.7436 319.313 63.5149 319.313C62.4212 319.313 61.4588 319.064 60.6278 318.567C59.7969 318.07 59.147 317.364 58.6783 316.447C58.2166 315.531 57.9822 314.434 57.9751 313.155V302.736H62.5135V312.346C62.5206 313.312 62.7798 314.075 63.2912 314.636C63.8026 315.197 64.4879 315.478 65.3473 315.478C65.8942 315.478 66.4055 315.354 66.8814 315.105C67.3572 314.849 67.7408 314.473 68.032 313.976C68.3303 313.479 68.4759 312.864 68.4688 312.133ZM88.5034 319.409C87.4594 319.409 86.529 319.228 85.7122 318.866C84.8955 318.496 84.2492 317.953 83.7733 317.236C83.3046 316.511 83.0702 315.609 83.0702 314.53C83.0702 313.621 83.2371 312.857 83.5709 312.239C83.9047 311.621 84.3593 311.124 84.9345 310.748C85.5098 310.371 86.1632 310.087 86.8948 309.895C87.6334 309.704 88.4076 309.569 89.2172 309.491C90.1689 309.391 90.936 309.299 91.5184 309.214C92.1007 309.121 92.5233 308.986 92.7861 308.809C93.0489 308.631 93.1803 308.368 93.1803 308.02V307.957C93.1803 307.282 92.9672 306.76 92.5411 306.39C92.122 306.021 91.5255 305.837 90.7513 305.837C89.9345 305.837 89.2847 306.018 88.8017 306.38C88.3188 306.735 87.9992 307.182 87.8429 307.722L83.6455 307.381C83.8586 306.387 84.2776 305.528 84.9026 304.803C85.5276 304.072 86.3337 303.511 87.3209 303.12C88.3152 302.722 89.4658 302.523 90.7726 302.523C91.6817 302.523 92.5517 302.63 93.3827 302.843C94.2208 303.056 94.963 303.386 95.6093 303.834C96.2627 304.281 96.7776 304.856 97.154 305.56C97.5304 306.256 97.7186 307.09 97.7186 308.063V319.1H93.4147V316.831H93.2868C93.024 317.342 92.6725 317.793 92.2321 318.184C91.7918 318.567 91.2627 318.869 90.6448 319.089C90.0269 319.302 89.3131 319.409 88.5034 319.409ZM89.8032 316.277C90.4708 316.277 91.0603 316.145 91.5716 315.883C92.083 315.613 92.4843 315.251 92.7755 314.796C93.0667 314.341 93.2122 313.827 93.2122 313.251V311.515C93.0702 311.607 92.8749 311.692 92.6263 311.77C92.3848 311.841 92.1114 311.909 91.806 311.973C91.5006 312.03 91.1952 312.083 90.8898 312.133C90.5844 312.175 90.3074 312.214 90.0588 312.25C89.5262 312.328 89.061 312.452 88.6632 312.623C88.2655 312.793 87.9566 313.024 87.7364 313.315C87.5162 313.599 87.4061 313.954 87.4061 314.381C87.4061 314.998 87.6299 315.471 88.0773 315.797C88.5319 316.117 89.1071 316.277 89.8032 316.277ZM122.668 319.1V297.282H131.276C132.924 297.282 134.33 297.577 135.495 298.166C136.667 298.748 137.558 299.576 138.169 300.648C138.787 301.714 139.096 302.967 139.096 304.409C139.096 305.858 138.783 307.104 138.158 308.148C137.533 309.185 136.628 309.981 135.442 310.535C134.263 311.089 132.835 311.366 131.159 311.366H125.395V307.658H130.413C131.294 307.658 132.025 307.538 132.608 307.296C133.19 307.055 133.623 306.692 133.908 306.209C134.199 305.726 134.344 305.126 134.344 304.409C134.344 303.685 134.199 303.074 133.908 302.577C133.623 302.079 133.187 301.703 132.597 301.447C132.015 301.185 131.28 301.053 130.392 301.053H127.281V319.1H122.668ZM134.451 309.171L139.873 319.1H134.781L129.476 309.171H134.451ZM156.6 319.42C154.945 319.42 153.514 319.068 152.307 318.365C151.107 317.655 150.18 316.667 149.526 315.403C148.873 314.132 148.546 312.658 148.546 310.982C148.546 309.292 148.873 307.814 149.526 306.55C150.18 305.279 151.107 304.292 152.307 303.589C153.514 302.878 154.945 302.523 156.6 302.523C158.255 302.523 159.683 302.878 160.883 303.589C162.09 304.292 163.021 305.279 163.674 306.55C164.328 307.814 164.654 309.292 164.654 310.982C164.654 312.658 164.328 314.132 163.674 315.403C163.021 316.667 162.09 317.655 160.883 318.365C159.683 319.068 158.255 319.42 156.6 319.42ZM156.622 315.904C157.374 315.904 158.003 315.691 158.507 315.265C159.011 314.832 159.391 314.242 159.647 313.496C159.91 312.751 160.041 311.902 160.041 310.95C160.041 309.998 159.91 309.15 159.647 308.404C159.391 307.658 159.011 307.069 158.507 306.636C158.003 306.202 157.374 305.986 156.622 305.986C155.862 305.986 155.222 306.202 154.704 306.636C154.193 307.069 153.805 307.658 153.543 308.404C153.287 309.15 153.159 309.998 153.159 310.95C153.159 311.902 153.287 312.751 153.543 313.496C153.805 314.242 154.193 314.832 154.704 315.265C155.222 315.691 155.862 315.904 156.622 315.904ZM185.299 312.133V302.736H189.837V319.1H185.48V316.128H185.309C184.94 317.087 184.326 317.857 183.466 318.439C182.614 319.022 181.574 319.313 180.345 319.313C179.251 319.313 178.289 319.064 177.458 318.567C176.627 318.07 175.977 317.364 175.508 316.447C175.047 315.531 174.812 314.434 174.805 313.155V302.736H179.344V312.346C179.351 313.312 179.61 314.075 180.121 314.636C180.633 315.197 181.318 315.478 182.177 315.478C182.724 315.478 183.236 315.354 183.711 315.105C184.187 314.849 184.571 314.473 184.862 313.976C185.16 313.479 185.306 312.864 185.299 312.133ZM209.371 302.736V306.145H199.517V302.736H209.371ZM201.754 298.816H206.292V314.072C206.292 314.491 206.356 314.817 206.484 315.052C206.612 315.279 206.789 315.439 207.017 315.531C207.251 315.623 207.521 315.67 207.826 315.67C208.039 315.67 208.253 315.652 208.466 315.616C208.679 315.574 208.842 315.542 208.956 315.52L209.669 318.898C209.442 318.969 209.123 319.05 208.711 319.143C208.299 319.242 207.798 319.302 207.209 319.324C206.115 319.366 205.156 319.221 204.332 318.887C203.515 318.553 202.88 318.035 202.425 317.332C201.971 316.628 201.747 315.741 201.754 314.668V298.816ZM226.809 319.42C225.126 319.42 223.677 319.079 222.463 318.397C221.255 317.708 220.325 316.735 219.671 315.478C219.018 314.214 218.691 312.719 218.691 310.993C218.691 309.31 219.018 307.832 219.671 306.561C220.325 305.29 221.244 304.299 222.431 303.589C223.624 302.878 225.023 302.523 226.628 302.523C227.708 302.523 228.713 302.697 229.643 303.045C230.58 303.386 231.397 303.901 232.093 304.59C232.796 305.279 233.343 306.145 233.734 307.189C234.124 308.226 234.32 309.441 234.32 310.833V312.079H220.502V309.267H230.048C230.048 308.614 229.906 308.035 229.622 307.53C229.338 307.026 228.943 306.632 228.439 306.348C227.942 306.057 227.363 305.911 226.703 305.911C226.014 305.911 225.403 306.071 224.87 306.39C224.345 306.703 223.933 307.126 223.634 307.658C223.336 308.184 223.183 308.77 223.176 309.416V312.09C223.176 312.9 223.325 313.599 223.624 314.189C223.929 314.778 224.359 315.233 224.913 315.552C225.467 315.872 226.124 316.032 226.884 316.032C227.388 316.032 227.85 315.961 228.269 315.819C228.688 315.677 229.046 315.464 229.345 315.18C229.643 314.895 229.87 314.547 230.026 314.136L234.224 314.413C234.011 315.421 233.574 316.302 232.913 317.055C232.26 317.8 231.415 318.383 230.378 318.802C229.348 319.214 228.159 319.42 226.809 319.42Z"/>
</mask>
<path d="M6.75696 319.1H1.81378L9.34574 297.282H15.2903L22.8116 319.1H17.8685L12.4033 302.268H12.2328L6.75696 319.1ZM6.44801 310.524H18.1241V314.125H6.44801V310.524ZM42.604 325.236V316.479H42.4655C42.2524 316.934 41.9506 317.385 41.5599 317.832C41.1764 318.273 40.6757 318.638 40.0578 318.93C39.447 319.221 38.7013 319.366 37.8206 319.366C36.5777 319.366 35.452 319.047 34.4435 318.408C33.442 317.761 32.6466 316.813 32.0571 315.563C31.4747 314.306 31.1835 312.765 31.1835 310.939C31.1835 309.064 31.4854 307.506 32.0891 306.263C32.6928 305.013 33.4953 304.079 34.4967 303.461C35.5053 302.836 36.6097 302.523 37.8099 302.523C38.7261 302.523 39.4896 302.68 40.1004 302.992C40.7183 303.297 41.2155 303.681 41.5919 304.143C41.9754 304.597 42.2666 305.045 42.4655 305.485H42.6572V302.736H47.1317V325.236H42.604ZM39.2588 315.755C39.9903 315.755 40.6082 315.556 41.1125 315.158C41.6239 314.753 42.0145 314.189 42.2844 313.464C42.5614 312.74 42.6999 311.891 42.6999 310.918C42.6999 309.945 42.5649 309.1 42.295 308.383C42.0251 307.665 41.6345 307.111 41.1232 306.721C40.6118 306.33 39.9903 306.135 39.2588 306.135C38.5131 306.135 37.8845 306.337 37.3732 306.742C36.8618 307.147 36.4747 307.708 36.2119 308.425C35.9491 309.143 35.8178 309.974 35.8178 310.918C35.8178 311.87 35.9491 312.712 36.2119 313.443C36.4818 314.167 36.8689 314.736 37.3732 315.148C37.8845 315.552 38.5131 315.755 39.2588 315.755ZM68.4688 312.133V302.736H73.0071V319.1H68.6499V316.128H68.4794C68.1101 317.087 67.4957 317.857 66.6364 318.439C65.7841 319.022 64.7436 319.313 63.5149 319.313C62.4212 319.313 61.4588 319.064 60.6278 318.567C59.7969 318.07 59.147 317.364 58.6783 316.447C58.2166 315.531 57.9822 314.434 57.9751 313.155V302.736H62.5135V312.346C62.5206 313.312 62.7798 314.075 63.2912 314.636C63.8026 315.197 64.4879 315.478 65.3473 315.478C65.8942 315.478 66.4055 315.354 66.8814 315.105C67.3572 314.849 67.7408 314.473 68.032 313.976C68.3303 313.479 68.4759 312.864 68.4688 312.133ZM88.5034 319.409C87.4594 319.409 86.529 319.228 85.7122 318.866C84.8955 318.496 84.2492 317.953 83.7733 317.236C83.3046 316.511 83.0702 315.609 83.0702 314.53C83.0702 313.621 83.2371 312.857 83.5709 312.239C83.9047 311.621 84.3593 311.124 84.9345 310.748C85.5098 310.371 86.1632 310.087 86.8948 309.895C87.6334 309.704 88.4076 309.569 89.2172 309.491C90.1689 309.391 90.936 309.299 91.5184 309.214C92.1007 309.121 92.5233 308.986 92.7861 308.809C93.0489 308.631 93.1803 308.368 93.1803 308.02V307.957C93.1803 307.282 92.9672 306.76 92.5411 306.39C92.122 306.021 91.5255 305.837 90.7513 305.837C89.9345 305.837 89.2847 306.018 88.8017 306.38C88.3188 306.735 87.9992 307.182 87.8429 307.722L83.6455 307.381C83.8586 306.387 84.2776 305.528 84.9026 304.803C85.5276 304.072 86.3337 303.511 87.3209 303.12C88.3152 302.722 89.4658 302.523 90.7726 302.523C91.6817 302.523 92.5517 302.63 93.3827 302.843C94.2208 303.056 94.963 303.386 95.6093 303.834C96.2627 304.281 96.7776 304.856 97.154 305.56C97.5304 306.256 97.7186 307.09 97.7186 308.063V319.1H93.4147V316.831H93.2868C93.024 317.342 92.6725 317.793 92.2321 318.184C91.7918 318.567 91.2627 318.869 90.6448 319.089C90.0269 319.302 89.3131 319.409 88.5034 319.409ZM89.8032 316.277C90.4708 316.277 91.0603 316.145 91.5716 315.883C92.083 315.613 92.4843 315.251 92.7755 314.796C93.0667 314.341 93.2122 313.827 93.2122 313.251V311.515C93.0702 311.607 92.8749 311.692 92.6263 311.77C92.3848 311.841 92.1114 311.909 91.806 311.973C91.5006 312.03 91.1952 312.083 90.8898 312.133C90.5844 312.175 90.3074 312.214 90.0588 312.25C89.5262 312.328 89.061 312.452 88.6632 312.623C88.2655 312.793 87.9566 313.024 87.7364 313.315C87.5162 313.599 87.4061 313.954 87.4061 314.381C87.4061 314.998 87.6299 315.471 88.0773 315.797C88.5319 316.117 89.1071 316.277 89.8032 316.277ZM122.668 319.1V297.282H131.276C132.924 297.282 134.33 297.577 135.495 298.166C136.667 298.748 137.558 299.576 138.169 300.648C138.787 301.714 139.096 302.967 139.096 304.409C139.096 305.858 138.783 307.104 138.158 308.148C137.533 309.185 136.628 309.981 135.442 310.535C134.263 311.089 132.835 311.366 131.159 311.366H125.395V307.658H130.413C131.294 307.658 132.025 307.538 132.608 307.296C133.19 307.055 133.623 306.692 133.908 306.209C134.199 305.726 134.344 305.126 134.344 304.409C134.344 303.685 134.199 303.074 133.908 302.577C133.623 302.079 133.187 301.703 132.597 301.447C132.015 301.185 131.28 301.053 130.392 301.053H127.281V319.1H122.668ZM134.451 309.171L139.873 319.1H134.781L129.476 309.171H134.451ZM156.6 319.42C154.945 319.42 153.514 319.068 152.307 318.365C151.107 317.655 150.18 316.667 149.526 315.403C148.873 314.132 148.546 312.658 148.546 310.982C148.546 309.292 148.873 307.814 149.526 306.55C150.18 305.279 151.107 304.292 152.307 303.589C153.514 302.878 154.945 302.523 156.6 302.523C158.255 302.523 159.683 302.878 160.883 303.589C162.09 304.292 163.021 305.279 163.674 306.55C164.328 307.814 164.654 309.292 164.654 310.982C164.654 312.658 164.328 314.132 163.674 315.403C163.021 316.667 162.09 317.655 160.883 318.365C159.683 319.068 158.255 319.42 156.6 319.42ZM156.622 315.904C157.374 315.904 158.003 315.691 158.507 315.265C159.011 314.832 159.391 314.242 159.647 313.496C159.91 312.751 160.041 311.902 160.041 310.95C160.041 309.998 159.91 309.15 159.647 308.404C159.391 307.658 159.011 307.069 158.507 306.636C158.003 306.202 157.374 305.986 156.622 305.986C155.862 305.986 155.222 306.202 154.704 306.636C154.193 307.069 153.805 307.658 153.543 308.404C153.287 309.15 153.159 309.998 153.159 310.95C153.159 311.902 153.287 312.751 153.543 313.496C153.805 314.242 154.193 314.832 154.704 315.265C155.222 315.691 155.862 315.904 156.622 315.904ZM185.299 312.133V302.736H189.837V319.1H185.48V316.128H185.309C184.94 317.087 184.326 317.857 183.466 318.439C182.614 319.022 181.574 319.313 180.345 319.313C179.251 319.313 178.289 319.064 177.458 318.567C176.627 318.07 175.977 317.364 175.508 316.447C175.047 315.531 174.812 314.434 174.805 313.155V302.736H179.344V312.346C179.351 313.312 179.61 314.075 180.121 314.636C180.633 315.197 181.318 315.478 182.177 315.478C182.724 315.478 183.236 315.354 183.711 315.105C184.187 314.849 184.571 314.473 184.862 313.976C185.16 313.479 185.306 312.864 185.299 312.133ZM209.371 302.736V306.145H199.517V302.736H209.371ZM201.754 298.816H206.292V314.072C206.292 314.491 206.356 314.817 206.484 315.052C206.612 315.279 206.789 315.439 207.017 315.531C207.251 315.623 207.521 315.67 207.826 315.67C208.039 315.67 208.253 315.652 208.466 315.616C208.679 315.574 208.842 315.542 208.956 315.52L209.669 318.898C209.442 318.969 209.123 319.05 208.711 319.143C208.299 319.242 207.798 319.302 207.209 319.324C206.115 319.366 205.156 319.221 204.332 318.887C203.515 318.553 202.88 318.035 202.425 317.332C201.971 316.628 201.747 315.741 201.754 314.668V298.816ZM226.809 319.42C225.126 319.42 223.677 319.079 222.463 318.397C221.255 317.708 220.325 316.735 219.671 315.478C219.018 314.214 218.691 312.719 218.691 310.993C218.691 309.31 219.018 307.832 219.671 306.561C220.325 305.29 221.244 304.299 222.431 303.589C223.624 302.878 225.023 302.523 226.628 302.523C227.708 302.523 228.713 302.697 229.643 303.045C230.58 303.386 231.397 303.901 232.093 304.59C232.796 305.279 233.343 306.145 233.734 307.189C234.124 308.226 234.32 309.441 234.32 310.833V312.079H220.502V309.267H230.048C230.048 308.614 229.906 308.035 229.622 307.53C229.338 307.026 228.943 306.632 228.439 306.348C227.942 306.057 227.363 305.911 226.703 305.911C226.014 305.911 225.403 306.071 224.87 306.39C224.345 306.703 223.933 307.126 223.634 307.658C223.336 308.184 223.183 308.77 223.176 309.416V312.09C223.176 312.9 223.325 313.599 223.624 314.189C223.929 314.778 224.359 315.233 224.913 315.552C225.467 315.872 226.124 316.032 226.884 316.032C227.388 316.032 227.85 315.961 228.269 315.819C228.688 315.677 229.046 315.464 229.345 315.18C229.643 314.895 229.87 314.547 230.026 314.136L234.224 314.413C234.011 315.421 233.574 316.302 232.913 317.055C232.26 317.8 231.415 318.383 230.378 318.802C229.348 319.214 228.159 319.42 226.809 319.42Z" fill="#87A2FF"/>
<path d="M6.75696 319.1V320.1H7.48323L7.7079 319.409L6.75696 319.1ZM1.81378 319.1L0.868517 318.774L0.410652 320.1H1.81378V319.1ZM9.34574 297.282V296.282H8.63304L8.40048 296.956L9.34574 297.282ZM15.2903 297.282L16.2357 296.956L16.0034 296.282H15.2903V297.282ZM22.8116 319.1V320.1H24.2141L23.757 318.774L22.8116 319.1ZM17.8685 319.1L16.9173 319.409L17.1418 320.1H17.8685V319.1ZM12.4033 302.268L13.3544 301.959L13.13 301.268H12.4033V302.268ZM12.2328 302.268V301.268H11.5065L11.2819 301.958L12.2328 302.268ZM6.44801 310.524V309.524H5.44801V310.524H6.44801ZM18.1241 310.524H19.1241V309.524H18.1241V310.524ZM18.1241 314.125V315.125H19.1241V314.125H18.1241ZM6.44801 314.125H5.44801V315.125H6.44801V314.125ZM6.75696 319.1V318.1H1.81378V319.1V320.1H6.75696V319.1ZM1.81378 319.1L2.75904 319.426L10.291 297.608L9.34574 297.282L8.40048 296.956L0.868517 318.774L1.81378 319.1ZM9.34574 297.282V298.282H15.2903V297.282V296.282H9.34574V297.282ZM15.2903 297.282L14.3449 297.608L21.8662 319.426L22.8116 319.1L23.757 318.774L16.2357 296.956L15.2903 297.282ZM22.8116 319.1V318.1H17.8685V319.1V320.1H22.8116V319.1ZM17.8685 319.1L18.8196 318.791L13.3544 301.959L12.4033 302.268L11.4521 302.576L16.9173 319.409L17.8685 319.1ZM12.4033 302.268V301.268H12.2328V302.268V303.268H12.4033V302.268ZM12.2328 302.268L11.2819 301.958L5.80601 318.791L6.75696 319.1L7.7079 319.409L13.1838 302.577L12.2328 302.268ZM6.44801 310.524V311.524H18.1241V310.524V309.524H6.44801V310.524ZM18.1241 310.524H17.1241V314.125H18.1241H19.1241V310.524H18.1241ZM18.1241 314.125V313.125H6.44801V314.125V315.125H18.1241V314.125ZM6.44801 314.125H7.44801V310.524H6.44801H5.44801V314.125H6.44801ZM42.604 325.236H41.604V326.236H42.604V325.236ZM42.604 316.479H43.604V315.479H42.604V316.479ZM42.4655 316.479V315.479H41.8298L41.56 316.055L42.4655 316.479ZM41.5599 317.832L40.8066 317.175L40.8059 317.175L41.5599 317.832ZM40.0578 318.93L39.6315 318.025L39.6275 318.027L40.0578 318.93ZM34.4435 318.408L33.9012 319.248L33.9081 319.252L34.4435 318.408ZM32.0571 315.563L31.1497 315.983L31.1526 315.99L32.0571 315.563ZM32.0891 306.263L32.9886 306.7L32.9895 306.698L32.0891 306.263ZM34.4967 303.461L35.0218 304.312L35.0235 304.311L34.4967 303.461ZM40.1004 302.992L39.6449 303.882L39.6573 303.889L40.1004 302.992ZM41.5919 304.143L40.8169 304.775L40.8222 304.781L40.8276 304.787L41.5919 304.143ZM42.4655 305.485L41.5541 305.897L41.8198 306.485H42.4655V305.485ZM42.6572 305.485V306.485H43.6572V305.485H42.6572ZM42.6572 302.736V301.736H41.6572V302.736H42.6572ZM47.1317 302.736H48.1317V301.736H47.1317V302.736ZM47.1317 325.236V326.236H48.1317V325.236H47.1317ZM41.1125 315.158L41.7318 315.943L41.7332 315.942L41.1125 315.158ZM42.2844 313.464L41.3503 313.107L41.3473 313.115L42.2844 313.464ZM42.295 308.383L43.231 308.031V308.031L42.295 308.383ZM37.3732 306.742L36.7524 305.958V305.958L37.3732 306.742ZM36.2119 313.443L35.2707 313.781L35.2748 313.792L36.2119 313.443ZM37.3732 315.148L36.7405 315.922L36.7464 315.927L36.7524 315.932L37.3732 315.148ZM42.604 325.236H43.604V316.479H42.604H41.604V325.236H42.604ZM42.604 316.479V315.479H42.4655V316.479V317.479H42.604V316.479ZM42.4655 316.479L41.56 316.055C41.393 316.411 41.1468 316.785 40.8066 317.175L41.5599 317.832L42.3133 318.49C42.7543 317.985 43.1118 317.456 43.3709 316.904L42.4655 316.479ZM41.5599 317.832L40.8059 317.175C40.5274 317.495 40.1452 317.783 39.6315 318.025L40.0578 318.93L40.4841 319.834C41.2062 319.494 41.8255 319.05 42.314 318.489L41.5599 317.832ZM40.0578 318.93L39.6275 318.027C39.1852 318.238 38.5955 318.366 37.8206 318.366V319.366V320.366C38.807 320.366 39.7088 320.204 40.4882 319.832L40.0578 318.93ZM37.8206 319.366V318.366C36.7591 318.366 35.8205 318.096 34.9788 317.563L34.4435 318.408L33.9081 319.252C35.0835 319.997 36.3963 320.366 37.8206 320.366V319.366ZM34.4435 318.408L34.9857 317.567C34.165 317.038 33.4843 316.245 32.9616 315.137L32.0571 315.563L31.1526 315.99C31.8089 317.381 32.7191 318.485 33.9012 319.248L34.4435 318.408ZM32.0571 315.563L32.9645 315.143C32.4592 314.052 32.1835 312.664 32.1835 310.939H31.1835H30.1835C30.1835 312.866 30.4902 314.56 31.1497 315.983L32.0571 315.563ZM31.1835 310.939H32.1835C32.1835 309.165 32.4702 307.767 32.9886 306.7L32.0891 306.263L31.1896 305.826C30.5005 307.244 30.1835 308.964 30.1835 310.939H31.1835ZM32.0891 306.263L32.9895 306.698C33.5255 305.588 34.2099 304.813 35.0218 304.312L34.4967 303.461L33.9716 302.61C32.7807 303.345 31.86 304.437 31.1886 305.828L32.0891 306.263ZM34.4967 303.461L35.0235 304.311C35.8719 303.785 36.7935 303.523 37.8099 303.523V302.523V301.523C36.4258 301.523 35.1386 301.887 33.97 302.611L34.4967 303.461ZM37.8099 302.523V303.523C38.6186 303.523 39.2143 303.662 39.645 303.882L40.1004 302.992L40.5559 302.102C39.7649 301.697 38.8337 301.523 37.8099 301.523V302.523ZM40.1004 302.992L39.6573 303.889C40.167 304.14 40.544 304.44 40.8169 304.775L41.5919 304.143L42.3669 303.511C41.8869 302.922 41.2697 302.454 40.5435 302.096L40.1004 302.992ZM41.5919 304.143L40.8276 304.787C41.1647 305.187 41.4008 305.557 41.5541 305.897L42.4655 305.485L43.3769 305.073C43.1324 304.532 42.7861 304.007 42.3562 303.498L41.5919 304.143ZM42.4655 305.485V306.485H42.6572V305.485V304.485H42.4655V305.485ZM42.6572 305.485H43.6572V302.736H42.6572H41.6572V305.485H42.6572ZM42.6572 302.736V303.736H47.1317V302.736V301.736H42.6572V302.736ZM47.1317 302.736H46.1317V325.236H47.1317H48.1317V302.736H47.1317ZM47.1317 325.236V324.236H42.604V325.236V326.236H47.1317V325.236ZM39.2588 315.755V316.755C40.1822 316.755 41.0269 316.499 41.7318 315.943L41.1125 315.158L40.4932 314.373C40.1896 314.613 39.7985 314.755 39.2588 314.755V315.755ZM41.1125 315.158L41.7332 315.942C42.4124 315.405 42.8997 314.677 43.2215 313.813L42.2844 313.464L41.3473 313.115C41.1292 313.701 40.8354 314.102 40.4918 314.374L41.1125 315.158ZM42.2844 313.464L43.2184 313.821C43.5485 312.958 43.6999 311.983 43.6999 310.918H42.6999H41.6999C41.6999 311.799 41.5742 312.522 41.3503 313.107L42.2844 313.464ZM42.6999 310.918H43.6999C43.6999 309.856 43.5529 308.886 43.231 308.031L42.295 308.383L41.3591 308.735C41.5769 309.314 41.6999 310.034 41.6999 310.918H42.6999ZM42.295 308.383L43.231 308.031C42.9078 307.172 42.4169 306.451 41.7302 305.926L41.1232 306.721L40.5161 307.515C40.8522 307.772 41.1424 308.159 41.3591 308.735L42.295 308.383ZM41.1232 306.721L41.7302 305.926C41.021 305.384 40.1783 305.135 39.2588 305.135V306.135V307.135C39.8024 307.135 40.2025 307.276 40.5161 307.515L41.1232 306.721ZM39.2588 306.135V305.135C38.3217 305.135 37.4654 305.394 36.7524 305.958L37.3732 306.742L37.9939 307.526C38.3037 307.281 38.7044 307.135 39.2588 307.135V306.135ZM37.3732 306.742L36.7524 305.958C36.0732 306.496 35.5882 307.221 35.273 308.081L36.2119 308.425L37.1509 308.769C37.3613 308.195 37.6504 307.798 37.9939 307.526L37.3732 306.742ZM36.2119 308.425L35.273 308.081C34.9615 308.931 34.8178 309.883 34.8178 310.918H35.8178H36.8178C36.8178 310.064 36.9368 309.354 37.1509 308.769L36.2119 308.425ZM35.8178 310.918H34.8178C34.8178 311.96 34.9614 312.92 35.2708 313.781L36.2119 313.443L37.1531 313.105C36.9369 312.503 36.8178 311.78 36.8178 310.918H35.8178ZM36.2119 313.443L35.2748 313.792C35.595 314.652 36.0751 315.378 36.7405 315.922L37.3732 315.148L38.0058 314.373C37.6627 314.093 37.3686 313.683 37.149 313.094L36.2119 313.443ZM37.3732 315.148L36.7524 315.932C37.4654 316.496 38.3217 316.755 39.2588 316.755V315.755V314.755C38.7044 314.755 38.3037 314.609 37.9939 314.364L37.3732 315.148ZM68.4688 312.133H67.4687L67.4688 312.142L68.4688 312.133ZM68.4688 302.736V301.736H67.4688V302.736H68.4688ZM73.0071 302.736H74.0071V301.736H73.0071V302.736ZM73.0071 319.1V320.1H74.0071V319.1H73.0071ZM68.6499 319.1H67.6499V320.1H68.6499V319.1ZM68.6499 316.128H69.6499V315.128H68.6499V316.128ZM68.4794 316.128V315.128H67.793L67.5462 315.768L68.4794 316.128ZM66.6364 318.439L66.0754 317.612L66.0722 317.614L66.6364 318.439ZM60.6278 318.567L61.1413 317.709V317.709L60.6278 318.567ZM58.6783 316.447L57.7852 316.897L57.788 316.903L58.6783 316.447ZM57.9751 313.155H56.9751L56.9752 313.161L57.9751 313.155ZM57.9751 302.736V301.736H56.9751V302.736H57.9751ZM62.5135 302.736H63.5135V301.736H62.5135V302.736ZM62.5135 312.346H61.5135L61.5135 312.353L62.5135 312.346ZM63.2912 314.636L64.0303 313.963V313.963L63.2912 314.636ZM66.8814 315.105L67.3444 315.991L67.3547 315.986L66.8814 315.105ZM68.032 313.976L67.1744 313.461L67.1691 313.47L68.032 313.976ZM68.4688 312.133H69.4688V302.736H68.4688H67.4688V312.133H68.4688ZM68.4688 302.736V303.736H73.0071V302.736V301.736H68.4688V302.736ZM73.0071 302.736H72.0071V319.1H73.0071H74.0071V302.736H73.0071ZM73.0071 319.1V318.1H68.6499V319.1V320.1H73.0071V319.1ZM68.6499 319.1H69.6499V316.128H68.6499H67.6499V319.1H68.6499ZM68.6499 316.128V315.128H68.4794V316.128V317.128H68.6499V316.128ZM68.4794 316.128L67.5462 315.768C67.2511 316.535 66.7677 317.143 66.0754 317.612L66.6364 318.439L67.1974 319.267C68.2238 318.572 68.9691 317.638 69.4126 316.487L68.4794 316.128ZM66.6364 318.439L66.0722 317.614C65.4157 318.062 64.5814 318.313 63.5149 318.313V319.313V320.313C64.9058 320.313 66.1525 319.981 67.2006 319.265L66.6364 318.439ZM63.5149 319.313V318.313C62.578 318.313 61.7977 318.102 61.1413 317.709L60.6278 318.567L60.1144 319.425C61.1199 320.027 62.2643 320.313 63.5149 320.313V319.313ZM60.6278 318.567L61.1413 317.709C60.4814 317.314 59.9575 316.752 59.5685 315.992L58.6783 316.447L57.788 316.903C58.3366 317.975 59.1124 318.826 60.1144 319.425L60.6278 318.567ZM58.6783 316.447L59.5713 315.997C59.1941 315.249 58.9816 314.311 58.9751 313.15L57.9751 313.155L56.9752 313.161C56.9829 314.557 57.2391 315.813 57.7852 316.897L58.6783 316.447ZM57.9751 313.155H58.9751V302.736H57.9751H56.9751V313.155H57.9751ZM57.9751 302.736V303.736H62.5135V302.736V301.736H57.9751V302.736ZM62.5135 302.736H61.5135V312.346H62.5135H63.5135V302.736H62.5135ZM62.5135 312.346L61.5135 312.353C61.5219 313.496 61.8331 314.521 62.5521 315.31L63.2912 314.636L64.0303 313.963C63.7266 313.629 63.5193 313.127 63.5135 312.338L62.5135 312.346ZM63.2912 314.636L62.5521 315.31C63.279 316.107 64.2477 316.478 65.3473 316.478V315.478V314.478C64.7282 314.478 64.3261 314.287 64.0303 313.963L63.2912 314.636ZM65.3473 315.478V316.478C66.0523 316.478 66.7229 316.316 67.3444 315.991L66.8814 315.105L66.4184 314.219C66.0882 314.391 65.7361 314.478 65.3473 314.478V315.478ZM66.8814 315.105L67.3547 315.986C68.0033 315.637 68.5172 315.126 68.8948 314.481L68.032 313.976L67.1691 313.47C66.9643 313.82 66.7112 314.061 66.4081 314.224L66.8814 315.105ZM68.032 313.976L68.8895 314.49C69.3046 313.798 69.4771 312.991 69.4687 312.123L68.4688 312.133L67.4688 312.142C67.4746 312.737 67.3559 313.159 67.1745 313.461L68.032 313.976ZM85.7122 318.866L85.3002 319.777L85.3068 319.78L85.7122 318.866ZM83.7733 317.236L82.9337 317.779L82.94 317.788L83.7733 317.236ZM83.5709 312.239L82.6911 311.764V311.764L83.5709 312.239ZM84.9345 310.748L84.387 309.911V309.911L84.9345 310.748ZM86.8948 309.895L86.6435 308.928L86.6412 308.928L86.8948 309.895ZM89.2172 309.491L89.3133 310.486L89.3211 310.485L89.2172 309.491ZM91.5184 309.214L91.6632 310.203L91.6749 310.201L91.5184 309.214ZM92.7861 308.809L92.2263 307.98V307.98L92.7861 308.809ZM92.5411 306.39L91.8799 307.141L91.8862 307.146L92.5411 306.39ZM88.8017 306.38L89.3942 307.186L89.4017 307.18L88.8017 306.38ZM87.8429 307.722L87.762 308.719L88.5763 308.785L88.8035 308L87.8429 307.722ZM83.6455 307.381L82.6677 307.172L82.429 308.286L83.5645 308.378L83.6455 307.381ZM84.9026 304.803L85.6598 305.456L85.6629 305.453L84.9026 304.803ZM87.3209 303.12L87.6888 304.05L87.6923 304.048L87.3209 303.12ZM93.3827 302.843L93.1343 303.812L93.1363 303.812L93.3827 302.843ZM95.6093 303.834L95.04 304.656L95.0443 304.659L95.6093 303.834ZM97.154 305.56L96.2724 306.032L96.2744 306.035L97.154 305.56ZM97.7186 319.1V320.1H98.7186V319.1H97.7186ZM93.4147 319.1H92.4147V320.1H93.4147V319.1ZM93.4147 316.831H94.4147V315.831H93.4147V316.831ZM93.2868 316.831V315.831H92.6764L92.3974 316.374L93.2868 316.831ZM92.2321 318.184L92.8889 318.938L92.8958 318.932L92.2321 318.184ZM90.6448 319.089L90.9708 320.035L90.9804 320.031L90.6448 319.089ZM91.5716 315.883L92.0287 316.772L92.0384 316.767L91.5716 315.883ZM92.7755 314.796L91.9334 314.257V314.257L92.7755 314.796ZM93.2122 311.515H94.2122V309.672L92.6673 310.676L93.2122 311.515ZM92.6263 311.77L92.9085 312.73L92.9173 312.727L92.9261 312.724L92.6263 311.77ZM91.806 311.973L91.9889 312.956L91.9999 312.954L92.0109 312.952L91.806 311.973ZM90.8898 312.133L91.028 313.123L91.0393 313.122L91.0505 313.12L90.8898 312.133ZM90.0588 312.25L89.9174 311.26L89.9137 311.26L90.0588 312.25ZM88.6632 312.623L89.0572 313.542V313.542L88.6632 312.623ZM87.7364 313.315L88.5269 313.928L88.5341 313.918L87.7364 313.315ZM88.0773 315.797L87.4876 316.605L87.4948 316.61L87.5021 316.615L88.0773 315.797ZM88.5034 319.409V318.409C87.5758 318.409 86.787 318.248 86.1177 317.951L85.7122 318.866L85.3068 319.78C86.271 320.207 87.3431 320.409 88.5034 320.409V319.409ZM85.7122 318.866L86.1243 317.954C85.4714 317.659 84.9741 317.237 84.6066 316.683L83.7733 317.236L82.94 317.788C83.5242 318.669 84.3196 319.333 85.3002 319.777L85.7122 318.866ZM83.7733 317.236L84.6129 316.692C84.2723 316.166 84.0702 315.465 84.0702 314.53H83.0702H82.0702C82.0702 315.754 82.3368 316.856 82.9338 317.779L83.7733 317.236ZM83.0702 314.53H84.0702C84.0702 313.739 84.2156 313.15 84.4507 312.715L83.5709 312.239L82.6911 311.764C82.2586 312.565 82.0702 313.502 82.0702 314.53H83.0702ZM83.5709 312.239L84.4507 312.715C84.7073 312.24 85.049 311.868 85.4821 311.585L84.9345 310.748L84.387 309.911C83.6696 310.38 83.1021 311.003 82.6911 311.764L83.5709 312.239ZM84.9345 310.748L85.4821 311.585C85.9585 311.273 86.5108 311.03 87.1483 310.863L86.8948 309.895L86.6412 308.928C85.8157 309.145 85.0612 309.47 84.387 309.911L84.9345 310.748ZM86.8948 309.895L87.1461 310.863C87.8305 310.686 88.5526 310.559 89.3133 310.486L89.2172 309.491L89.1212 308.495C88.2625 308.578 87.4363 308.722 86.6435 308.928L86.8948 309.895ZM89.2172 309.491L89.3211 310.485C90.2792 310.385 91.0615 310.291 91.6632 310.203L91.5184 309.214L91.3736 308.224C90.8105 308.307 90.0586 308.397 89.1133 308.496L89.2172 309.491ZM91.5184 309.214L91.6749 310.201C92.2985 310.102 92.898 309.94 93.346 309.637L92.7861 308.809L92.2263 307.98C92.1487 308.033 91.903 308.14 91.3618 308.226L91.5184 309.214ZM92.7861 308.809L93.346 309.637C93.9141 309.254 94.1803 308.663 94.1803 308.02H93.1803H92.1803C92.1803 308.045 92.178 308.055 92.178 308.055C92.1782 308.055 92.1803 308.045 92.1873 308.031C92.1945 308.017 92.2038 308.004 92.2135 307.993C92.2229 307.982 92.2288 307.979 92.2263 307.98L92.7861 308.809ZM93.1803 308.02H94.1803V307.957H93.1803H92.1803V308.02H93.1803ZM93.1803 307.957H94.1803C94.1803 307.054 93.8845 306.231 93.196 305.635L92.5411 306.39L91.8862 307.146C92.0499 307.288 92.1803 307.509 92.1803 307.957H93.1803ZM92.5411 306.39L93.2023 305.64C92.5406 305.057 91.6749 304.837 90.7513 304.837V305.837V306.837C91.376 306.837 91.7035 306.985 91.8799 307.141L92.5411 306.39ZM90.7513 305.837V304.837C89.7936 304.837 88.9097 305.049 88.2017 305.58L88.8017 306.38L89.4017 307.18C89.6597 306.986 90.0755 306.837 90.7513 306.837V305.837ZM88.8017 306.38L88.2093 305.574C87.5616 306.051 87.1041 306.678 86.8824 307.444L87.8429 307.722L88.8035 308C88.8943 307.687 89.076 307.419 89.3941 307.185L88.8017 306.38ZM87.8429 307.722L87.9239 306.725L83.7264 306.385L83.6455 307.381L83.5645 308.378L87.762 308.719L87.8429 307.722ZM83.6455 307.381L84.6233 307.591C84.8035 306.75 85.1513 306.046 85.6597 305.456L84.9026 304.803L84.1454 304.15C83.4039 305.009 82.9136 306.024 82.6677 307.172L83.6455 307.381ZM84.9026 304.803L85.6629 305.453C86.1713 304.858 86.8373 304.387 87.6888 304.05L87.3209 303.12L86.953 302.19C85.8301 302.634 84.8839 303.286 84.1423 304.154L84.9026 304.803ZM87.3209 303.12L87.6923 304.048C88.5456 303.707 89.5658 303.523 90.7726 303.523V302.523V301.523C89.3658 301.523 88.0849 301.737 86.9495 302.191L87.3209 303.12ZM90.7726 302.523V303.523C91.6029 303.523 92.3892 303.621 93.1343 303.812L93.3827 302.843L93.6311 301.874C92.7143 301.639 91.7605 301.523 90.7726 301.523V302.523ZM93.3827 302.843L93.1363 303.812C93.8704 303.999 94.5011 304.283 95.0401 304.656L95.6093 303.834L96.1785 303.011C95.4249 302.49 94.5711 302.113 93.6291 301.874L93.3827 302.843ZM95.6093 303.834L95.0443 304.659C95.5644 305.015 95.9711 305.469 96.2724 306.031L97.154 305.56L98.0356 305.088C97.5841 304.244 96.961 303.547 96.1743 303.009L95.6093 303.834ZM97.154 305.56L96.2744 306.035C96.5556 306.555 96.7186 307.218 96.7186 308.063H97.7186H98.7186C98.7186 306.962 98.5052 305.956 98.0336 305.084L97.154 305.56ZM97.7186 308.063H96.7186V319.1H97.7186H98.7186V308.063H97.7186ZM97.7186 319.1V318.1H93.4147V319.1V320.1H97.7186V319.1ZM93.4147 319.1H94.4147V316.831H93.4147H92.4147V319.1H93.4147ZM93.4147 316.831V315.831H93.2868V316.831V317.831H93.4147V316.831ZM93.2868 316.831L92.3974 316.374C92.1926 316.772 91.9185 317.125 91.5685 317.436L92.2321 318.184L92.8958 318.932C93.4265 318.461 93.8555 317.912 94.1763 317.288L93.2868 316.831ZM92.2321 318.184L91.5754 317.43C91.2403 317.722 90.8236 317.964 90.3091 318.147L90.6448 319.089L90.9804 320.031C91.7017 319.774 92.3433 319.413 92.8889 318.938L92.2321 318.184ZM90.6448 319.089L90.3188 318.144C89.8274 318.313 89.2276 318.409 88.5034 318.409V319.409V320.409C89.3986 320.409 90.2264 320.291 90.9708 320.035L90.6448 319.089ZM89.8032 316.277V317.277C90.6041 317.277 91.3547 317.118 92.0287 316.772L91.5716 315.883L91.1146 314.993C90.7658 315.172 90.3375 315.277 89.8032 315.277V316.277ZM91.5716 315.883L92.0384 316.767C92.6913 316.422 93.2265 315.946 93.6175 315.335L92.7755 314.796L91.9334 314.257C91.742 314.555 91.4747 314.803 91.1049 314.998L91.5716 315.883ZM92.7755 314.796L93.6175 315.335C94.0187 314.709 94.2122 314.005 94.2122 313.251H93.2122H92.2122C92.2122 313.648 92.1146 313.974 91.9334 314.257L92.7755 314.796ZM93.2122 313.251H94.2122V311.515H93.2122H92.2122V313.251H93.2122ZM93.2122 311.515L92.6673 310.676C92.6305 310.7 92.5296 310.753 92.3265 310.816L92.6263 311.77L92.9261 312.724C93.2202 312.632 93.5099 312.514 93.7572 312.353L93.2122 311.515ZM92.6263 311.77L92.3441 310.811C92.1333 310.873 91.8864 310.934 91.6011 310.994L91.806 311.973L92.0109 312.952C92.3364 312.884 92.6363 312.81 92.9085 312.73L92.6263 311.77ZM91.806 311.973L91.6231 310.99C91.3251 311.045 91.0271 311.097 90.7291 311.146L90.8898 312.133L91.0505 313.12C91.3633 313.069 91.6761 313.014 91.9889 312.956L91.806 311.973ZM90.8898 312.133L90.7516 311.142C90.4454 311.185 90.1673 311.224 89.9174 311.26L90.0588 312.25L90.2003 313.24C90.4476 313.204 90.7234 313.166 91.028 313.123L90.8898 312.133ZM90.0588 312.25L89.9137 311.26C89.3153 311.348 88.7632 311.492 88.2693 311.704L88.6632 312.623L89.0572 313.542C89.3588 313.413 89.737 313.308 90.204 313.239L90.0588 312.25ZM88.6632 312.623L88.2693 311.704C87.7416 311.93 87.2816 312.259 86.9387 312.712L87.7364 313.315L88.5341 313.918C88.6315 313.789 88.7895 313.657 89.0572 313.542L88.6632 312.623ZM87.7364 313.315L86.946 312.703C86.5659 313.193 86.4061 313.775 86.4061 314.381H87.4061H88.4061C88.4061 314.134 88.4665 314.006 88.5268 313.928L87.7364 313.315ZM87.4061 314.381H86.4061C86.4061 315.275 86.7498 316.066 87.4876 316.605L88.0773 315.797L88.667 314.99C88.5099 314.875 88.4061 314.722 88.4061 314.381H87.4061ZM88.0773 315.797L87.5021 316.615C88.1634 317.08 88.9536 317.277 89.8032 317.277V316.277V315.277C89.2607 315.277 88.9003 315.154 88.6525 314.979L88.0773 315.797ZM122.668 319.1H121.668V320.1H122.668V319.1ZM122.668 297.282V296.282H121.668V297.282H122.668ZM135.495 298.166L135.043 299.058L135.05 299.062L135.495 298.166ZM138.169 300.648L137.3 301.143L137.304 301.15L138.169 300.648ZM138.158 308.148L139.015 308.665L139.016 308.662L138.158 308.148ZM135.442 310.535L135.018 309.629L135.016 309.63L135.442 310.535ZM125.395 311.366H124.395V312.366H125.395V311.366ZM125.395 307.658V306.658H124.395V307.658H125.395ZM132.608 307.296L132.991 308.22V308.22L132.608 307.296ZM133.908 306.209L133.051 305.693L133.046 305.702L133.908 306.209ZM133.908 302.577L133.039 303.073L133.045 303.082L133.908 302.577ZM132.597 301.447L132.186 302.359L132.193 302.362L132.199 302.365L132.597 301.447ZM127.281 301.053V300.053H126.281V301.053H127.281ZM127.281 319.1V320.1H128.281V319.1H127.281ZM134.451 309.171L135.328 308.692L135.044 308.171H134.451V309.171ZM139.873 319.1V320.1H141.559L140.751 318.621L139.873 319.1ZM134.781 319.1L133.899 319.571L134.182 320.1H134.781V319.1ZM129.476 309.171V308.171H127.808L128.594 309.642L129.476 309.171ZM122.668 319.1H123.668V297.282H122.668H121.668V319.1H122.668ZM122.668 297.282V298.282H131.276V297.282V296.282H122.668V297.282ZM131.276 297.282V298.282C132.807 298.282 134.05 298.556 135.043 299.058L135.495 298.166L135.946 297.274C134.61 296.597 133.041 296.282 131.276 296.282V297.282ZM135.495 298.166L135.05 299.062C136.055 299.561 136.794 300.254 137.3 301.143L138.169 300.648L139.038 300.153C138.323 298.898 137.278 297.936 135.94 297.271L135.495 298.166ZM138.169 300.648L137.304 301.15C137.819 302.039 138.096 303.113 138.096 304.409H139.096H140.096C140.096 302.821 139.754 301.389 139.034 300.147L138.169 300.648ZM139.096 304.409H138.096C138.096 305.712 137.816 306.773 137.3 307.635L138.158 308.148L139.016 308.662C139.751 307.435 140.096 306.004 140.096 304.409H139.096ZM138.158 308.148L137.302 307.632C136.788 308.485 136.04 309.152 135.018 309.629L135.442 310.535L135.865 311.441C137.216 310.81 138.279 309.885 139.015 308.665L138.158 308.148ZM135.442 310.535L135.016 309.63C134.003 310.106 132.729 310.366 131.159 310.366V311.366V312.366C132.941 312.366 134.522 312.071 135.867 311.44L135.442 310.535ZM131.159 311.366V310.366H125.395V311.366V312.366H131.159V311.366ZM125.395 311.366H126.395V307.658H125.395H124.395V311.366H125.395ZM125.395 307.658V308.658H130.413V307.658V306.658H125.395V307.658ZM130.413 307.658V308.658C131.377 308.658 132.249 308.527 132.991 308.22L132.608 307.296L132.225 306.372C131.802 306.548 131.211 306.658 130.413 306.658V307.658ZM132.608 307.296L132.991 308.22C133.748 307.906 134.362 307.41 134.769 306.716L133.908 306.209L133.046 305.702C132.885 305.975 132.633 306.203 132.225 306.372L132.608 307.296ZM133.908 306.209L134.764 306.726C135.171 306.05 135.344 305.259 135.344 304.409H134.344H133.344C133.344 304.993 133.226 305.403 133.051 305.693L133.908 306.209ZM134.344 304.409H135.344C135.344 303.552 135.172 302.756 134.77 302.071L133.908 302.577L133.045 303.082C133.226 303.391 133.344 303.817 133.344 304.409H134.344ZM133.908 302.577L134.776 302.08C134.372 301.373 133.757 300.861 132.995 300.53L132.597 301.447L132.199 302.365C132.616 302.545 132.875 302.786 133.039 303.073L133.908 302.577ZM132.597 301.447L133.008 300.536C132.257 300.197 131.37 300.053 130.392 300.053V301.053V302.053C131.19 302.053 131.773 302.172 132.186 302.359L132.597 301.447ZM130.392 301.053V300.053H127.281V301.053V302.053H130.392V301.053ZM127.281 301.053H126.281V319.1H127.281H128.281V301.053H127.281ZM127.281 319.1V318.1H122.668V319.1V320.1H127.281V319.1ZM134.451 309.171L133.573 309.65L138.996 319.579L139.873 319.1L140.751 318.621L135.328 308.692L134.451 309.171ZM139.873 319.1V318.1H134.781V319.1V320.1H139.873V319.1ZM134.781 319.1L135.663 318.629L130.358 308.7L129.476 309.171L128.594 309.642L133.899 319.571L134.781 319.1ZM129.476 309.171V310.171H134.451V309.171V308.171H129.476V309.171ZM152.307 318.365L151.798 319.226L151.804 319.229L152.307 318.365ZM149.526 315.403L148.637 315.86L148.638 315.862L149.526 315.403ZM149.526 306.55L150.415 307.009L150.416 307.007L149.526 306.55ZM152.307 303.589L152.812 304.451L152.814 304.451L152.307 303.589ZM160.883 303.589L160.374 304.449L160.38 304.453L160.883 303.589ZM163.674 306.55L162.785 307.007L162.786 307.009L163.674 306.55ZM163.674 315.403L164.562 315.862L164.564 315.86L163.674 315.403ZM160.883 318.365L161.388 319.228L161.39 319.227L160.883 318.365ZM158.507 315.265L159.153 316.029L159.159 316.023L158.507 315.265ZM159.647 313.496L158.704 313.164L158.701 313.172L159.647 313.496ZM159.647 308.404L158.701 308.728L158.704 308.736L159.647 308.404ZM154.704 306.636L154.063 305.868L154.058 305.873L154.704 306.636ZM153.543 308.404L152.6 308.072L152.597 308.08L153.543 308.404ZM153.543 313.496L152.597 313.821L152.6 313.829L153.543 313.496ZM154.704 315.265L154.058 316.028L154.063 316.033L154.069 316.037L154.704 315.265ZM156.6 319.42V318.42C155.089 318.42 153.839 318.1 152.81 317.501L152.307 318.365L151.804 319.229C153.19 320.036 154.801 320.42 156.6 320.42V319.42ZM152.307 318.365L152.816 317.504C151.781 316.892 150.984 316.045 150.415 314.944L149.526 315.403L148.638 315.862C149.376 317.29 150.432 318.418 151.798 319.226L152.307 318.365ZM149.526 315.403L150.416 314.946C149.847 313.839 149.546 312.527 149.546 310.982H148.546H147.546C147.546 312.79 147.899 314.425 148.637 315.86L149.526 315.403ZM148.546 310.982H149.546C149.546 309.422 149.847 308.107 150.415 307.009L149.526 306.55L148.638 306.091C147.899 307.522 147.546 309.162 147.546 310.982H148.546ZM149.526 306.55L150.416 307.007C150.985 305.9 151.781 305.056 152.812 304.451L152.307 303.589L151.801 302.726C150.433 303.528 149.375 304.658 148.637 306.093L149.526 306.55ZM152.307 303.589L152.814 304.451C153.842 303.846 155.091 303.523 156.6 303.523V302.523V301.523C154.8 301.523 153.187 301.911 151.8 302.727L152.307 303.589ZM156.6 302.523V303.523C158.11 303.523 159.354 303.846 160.374 304.449L160.883 303.589L161.392 302.728C160.011 301.911 158.401 301.523 156.6 301.523V302.523ZM160.883 303.589L160.38 304.453C161.418 305.058 162.216 305.902 162.785 307.007L163.674 306.55L164.564 306.093C163.825 304.656 162.762 303.526 161.386 302.724L160.883 303.589ZM163.674 306.55L162.786 307.009C163.353 308.107 163.654 309.422 163.654 310.982H164.654H165.654C165.654 309.162 165.302 307.522 164.562 306.091L163.674 306.55ZM164.654 310.982H163.654C163.654 312.527 163.354 313.839 162.785 314.946L163.674 315.403L164.564 315.86C165.301 314.425 165.654 312.79 165.654 310.982H164.654ZM163.674 315.403L162.786 314.944C162.217 316.044 161.418 316.89 160.376 317.503L160.883 318.365L161.39 319.227C162.763 318.419 163.824 317.291 164.562 315.862L163.674 315.403ZM160.883 318.365L160.377 317.502C159.357 318.1 158.111 318.42 156.6 318.42V319.42V320.42C158.399 320.42 160.008 320.036 161.388 319.228L160.883 318.365ZM156.622 315.904V316.904C157.576 316.904 158.443 316.628 159.153 316.029L158.507 315.265L157.862 314.501C157.563 314.753 157.173 314.904 156.622 314.904V315.904ZM158.507 315.265L159.159 316.023C159.821 315.454 160.29 314.703 160.593 313.821L159.647 313.496L158.701 313.172C158.492 313.781 158.202 314.209 157.856 314.506L158.507 315.265ZM159.647 313.496L160.59 313.829C160.897 312.957 161.041 311.993 161.041 310.95H160.041H159.041C159.041 311.811 158.922 312.544 158.704 313.164L159.647 313.496ZM160.041 310.95H161.041C161.041 309.908 160.897 308.943 160.59 308.072L159.647 308.404L158.704 308.736C158.922 309.356 159.041 310.089 159.041 310.95H160.041ZM159.647 308.404L160.593 308.08C160.29 307.197 159.821 306.446 159.159 305.877L158.507 306.636L157.856 307.394C158.202 307.691 158.492 308.119 158.701 308.728L159.647 308.404ZM158.507 306.636L159.159 305.877C158.449 305.267 157.58 304.986 156.622 304.986V305.986V306.986C157.169 306.986 157.557 307.137 157.856 307.394L158.507 306.636ZM156.622 305.986V304.986C155.658 304.986 154.784 305.266 154.063 305.868L154.704 306.636L155.345 307.403C155.661 307.139 156.065 306.986 156.622 306.986V305.986ZM154.704 306.636L154.058 305.873C153.388 306.44 152.911 307.189 152.6 308.072L153.543 308.404L154.486 308.736C154.7 308.128 154.997 307.698 155.35 307.399L154.704 306.636ZM153.543 308.404L152.597 308.08C152.299 308.949 152.159 309.91 152.159 310.95H153.159H154.159C154.159 310.087 154.275 309.351 154.489 308.728L153.543 308.404ZM153.159 310.95H152.159C152.159 311.99 152.299 312.951 152.597 313.821L153.543 313.496L154.489 313.172C154.275 312.55 154.159 311.814 154.159 310.95H153.159ZM153.543 313.496L152.6 313.829C152.911 314.711 153.388 315.461 154.058 316.028L154.704 315.265L155.35 314.502C154.997 314.202 154.7 313.773 154.486 313.164L153.543 313.496ZM154.704 315.265L154.069 316.037C154.79 316.63 155.662 316.904 156.622 316.904V315.904V314.904C156.061 314.904 155.655 314.752 155.339 314.492L154.704 315.265ZM185.299 312.133H184.299L184.299 312.142L185.299 312.133ZM185.299 302.736V301.736H184.299V302.736H185.299ZM189.837 302.736H190.837V301.736H189.837V302.736ZM189.837 319.1V320.1H190.837V319.1H189.837ZM185.48 319.1H184.48V320.1H185.48V319.1ZM185.48 316.128H186.48V315.128H185.48V316.128ZM185.309 316.128V315.128H184.623L184.376 315.768L185.309 316.128ZM183.466 318.439L182.905 317.612L182.902 317.614L183.466 318.439ZM177.458 318.567L177.971 317.709V317.709L177.458 318.567ZM175.508 316.447L174.615 316.897L174.618 316.903L175.508 316.447ZM174.805 313.155H173.805L173.805 313.161L174.805 313.155ZM174.805 302.736V301.736H173.805V302.736H174.805ZM179.344 302.736H180.344V301.736H179.344V302.736ZM179.344 312.346H178.344L178.344 312.353L179.344 312.346ZM180.121 314.636L180.86 313.963V313.963L180.121 314.636ZM183.711 315.105L184.175 315.991L184.185 315.986L183.711 315.105ZM184.862 313.976L184.004 313.461L183.999 313.47L184.862 313.976ZM185.299 312.133H186.299V302.736H185.299H184.299V312.133H185.299ZM185.299 302.736V303.736H189.837V302.736V301.736H185.299V302.736ZM189.837 302.736H188.837V319.1H189.837H190.837V302.736H189.837ZM189.837 319.1V318.1H185.48V319.1V320.1H189.837V319.1ZM185.48 319.1H186.48V316.128H185.48H184.48V319.1H185.48ZM185.48 316.128V315.128H185.309V316.128V317.128H185.48V316.128ZM185.309 316.128L184.376 315.768C184.081 316.535 183.598 317.143 182.905 317.612L183.466 318.439L184.027 319.267C185.054 318.572 185.799 317.638 186.243 316.487L185.309 316.128ZM183.466 318.439L182.902 317.614C182.246 318.062 181.411 318.313 180.345 318.313V319.313V320.313C181.736 320.313 182.983 319.981 184.031 319.265L183.466 318.439ZM180.345 319.313V318.313C179.408 318.313 178.628 318.102 177.971 317.709L177.458 318.567L176.944 319.425C177.95 320.027 179.094 320.313 180.345 320.313V319.313ZM177.458 318.567L177.971 317.709C177.311 317.314 176.788 316.752 176.399 315.992L175.508 316.447L174.618 316.903C175.167 317.975 175.942 318.826 176.944 319.425L177.458 318.567ZM175.508 316.447L176.401 315.997C176.024 315.249 175.812 314.311 175.805 313.15L174.805 313.155L173.805 313.161C173.813 314.557 174.069 315.813 174.615 316.897L175.508 316.447ZM174.805 313.155H175.805V302.736H174.805H173.805V313.155H174.805ZM174.805 302.736V303.736H179.344V302.736V301.736H174.805V302.736ZM179.344 302.736H178.344V312.346H179.344H180.344V302.736H179.344ZM179.344 312.346L178.344 312.353C178.352 313.496 178.663 314.521 179.382 315.31L180.121 314.636L180.86 313.963C180.557 313.629 180.349 313.127 180.344 312.338L179.344 312.346ZM180.121 314.636L179.382 315.31C180.109 316.107 181.078 316.478 182.177 316.478V315.478V314.478C181.558 314.478 181.156 314.287 180.86 313.963L180.121 314.636ZM182.177 315.478V316.478C182.882 316.478 183.553 316.316 184.174 315.991L183.711 315.105L183.248 314.219C182.918 314.391 182.566 314.478 182.177 314.478V315.478ZM183.711 315.105L184.185 315.986C184.833 315.637 185.347 315.126 185.725 314.481L184.862 313.976L183.999 313.47C183.794 313.82 183.541 314.061 183.238 314.224L183.711 315.105ZM184.862 313.976L185.72 314.49C186.135 313.798 186.307 312.991 186.299 312.123L185.299 312.133L184.299 312.142C184.305 312.737 184.186 313.159 184.005 313.461L184.862 313.976ZM209.371 302.736H210.371V301.736H209.371V302.736ZM209.371 306.145V307.145H210.371V306.145H209.371ZM199.517 306.145H198.517V307.145H199.517V306.145ZM199.517 302.736V301.736H198.517V302.736H199.517ZM201.754 298.816V297.816H200.754V298.816H201.754ZM206.292 298.816H207.292V297.816H206.292V298.816ZM206.484 315.052L205.606 315.531L205.613 315.542L206.484 315.052ZM207.017 315.531L206.64 316.458L206.65 316.462L207.017 315.531ZM208.466 315.616L208.63 316.603L208.646 316.6L208.662 316.597L208.466 315.616ZM208.956 315.52L209.934 315.314L209.732 314.357L208.771 314.538L208.956 315.52ZM209.669 318.898L209.968 319.852L210.836 319.581L210.648 318.691L209.669 318.898ZM208.711 319.143L208.492 318.167L208.484 318.169L208.476 318.171L208.711 319.143ZM207.209 319.324L207.172 318.324L207.17 318.324L207.209 319.324ZM204.332 318.887L203.954 319.813L203.957 319.814L204.332 318.887ZM202.425 317.332L203.265 316.789V316.789L202.425 317.332ZM201.754 314.668L202.754 314.675V314.668H201.754ZM209.371 302.736H208.371V306.145H209.371H210.371V302.736H209.371ZM209.371 306.145V305.145H199.517V306.145V307.145H209.371V306.145ZM199.517 306.145H200.517V302.736H199.517H198.517V306.145H199.517ZM199.517 302.736V303.736H209.371V302.736V301.736H199.517V302.736ZM201.754 298.816V299.816H206.292V298.816V297.816H201.754V298.816ZM206.292 298.816H205.292V314.072H206.292H207.292V298.816H206.292ZM206.292 314.072H205.292C205.292 314.572 205.365 315.089 205.606 315.531L206.484 315.052L207.362 314.573C207.347 314.546 207.292 314.41 207.292 314.072H206.292ZM206.484 315.052L205.613 315.542C205.844 315.953 206.19 316.274 206.64 316.458L207.017 315.531L207.393 314.605C207.388 314.602 207.385 314.601 207.384 314.6C207.384 314.6 207.383 314.6 207.382 314.599C207.381 314.598 207.371 314.589 207.356 314.561L206.484 315.052ZM207.017 315.531L206.65 316.462C207.023 316.608 207.421 316.67 207.826 316.67V315.67V314.67C207.621 314.67 207.479 314.638 207.383 314.601L207.017 315.531ZM207.826 315.67V316.67C208.095 316.67 208.363 316.647 208.63 316.603L208.466 315.616L208.301 314.63C208.142 314.657 207.984 314.67 207.826 314.67V315.67ZM208.466 315.616L208.662 316.597C208.874 316.555 209.032 316.524 209.14 316.503L208.956 315.52L208.771 314.538C208.652 314.56 208.484 314.593 208.27 314.636L208.466 315.616ZM208.956 315.52L207.977 315.727L208.691 319.104L209.669 318.898L210.648 318.691L209.934 315.314L208.956 315.52ZM209.669 318.898L209.371 317.943C209.183 318.002 208.894 318.077 208.492 318.167L208.711 319.143L208.929 320.118C209.351 320.024 209.702 319.935 209.968 319.852L209.669 318.898ZM208.711 319.143L208.476 318.171C208.149 318.249 207.719 318.305 207.172 318.324L207.209 319.324L207.245 320.323C207.877 320.3 208.449 320.235 208.945 320.115L208.711 319.143ZM207.209 319.324L207.17 318.324C206.186 318.363 205.373 318.23 204.708 317.96L204.332 318.887L203.957 319.814C204.939 320.212 206.044 320.37 207.247 320.323L207.209 319.324ZM204.332 318.887L204.71 317.961C204.072 317.7 203.602 317.31 203.265 316.789L202.425 317.332L201.585 317.874C202.157 318.759 202.958 319.406 203.954 319.813L204.332 318.887ZM202.425 317.332L203.265 316.789C202.942 316.289 202.748 315.607 202.754 314.675L201.754 314.668L200.754 314.662C200.746 315.875 200.999 316.967 201.585 317.874L202.425 317.332ZM201.754 314.668H202.754V298.816H201.754H200.754V314.668H201.754ZM222.463 318.397L221.967 319.265L221.973 319.269L222.463 318.397ZM219.671 315.478L218.783 315.937L218.784 315.939L219.671 315.478ZM219.671 306.561L218.782 306.104V306.104L219.671 306.561ZM222.431 303.589L221.919 302.729L221.917 302.731L222.431 303.589ZM229.643 303.045L229.293 303.982L229.301 303.985L229.643 303.045ZM232.093 304.59L231.39 305.301L231.393 305.304L232.093 304.59ZM233.734 307.189L232.797 307.54L232.798 307.542L233.734 307.189ZM234.32 312.079V313.079H235.32V312.079H234.32ZM220.502 312.079H219.502V313.079H220.502V312.079ZM220.502 309.267V308.267H219.502V309.267H220.502ZM230.048 309.267V310.267H231.048V309.267H230.048ZM229.622 307.53L228.75 308.021V308.021L229.622 307.53ZM228.439 306.348L227.934 307.211L227.941 307.215L227.948 307.219L228.439 306.348ZM224.87 306.39L225.381 307.25L225.385 307.248L224.87 306.39ZM223.634 307.658L224.504 308.152L224.507 308.147L223.634 307.658ZM223.176 309.416L222.176 309.405V309.416H223.176ZM223.624 314.189L222.731 314.64L222.736 314.649L223.624 314.189ZM228.269 315.819L227.948 314.872V314.872L228.269 315.819ZM229.345 315.18L228.655 314.455V314.455L229.345 315.18ZM230.026 314.136L230.092 313.138L229.354 313.089L229.091 313.781L230.026 314.136ZM234.224 314.413L235.202 314.619L235.441 313.491L234.29 313.415L234.224 314.413ZM232.913 317.055L232.162 316.395L232.161 316.396L232.913 317.055ZM230.378 318.802L230.749 319.73L230.753 319.729L230.378 318.802ZM226.809 319.42V318.42C225.262 318.42 223.989 318.107 222.952 317.525L222.463 318.397L221.973 319.269C223.365 320.05 224.99 320.42 226.809 320.42V319.42ZM222.463 318.397L222.958 317.528C221.921 316.937 221.125 316.107 220.559 315.017L219.671 315.478L218.784 315.939C219.524 317.363 220.589 318.479 221.967 319.265L222.463 318.397ZM219.671 315.478L220.56 315.019C219.994 313.924 219.691 312.592 219.691 310.993H218.691H217.691C217.691 312.845 218.042 314.504 218.783 315.937L219.671 315.478ZM218.691 310.993H219.691C219.691 309.44 219.992 308.125 220.561 307.018L219.671 306.561L218.782 306.104C218.044 307.54 217.691 309.179 217.691 310.993H218.691ZM219.671 306.561L220.561 307.018C221.132 305.907 221.924 305.058 222.944 304.447L222.431 303.589L221.917 302.731C220.565 303.54 219.518 304.672 218.782 306.104L219.671 306.561ZM222.431 303.589L222.942 304.448C223.958 303.843 225.174 303.523 226.628 303.523V302.523V301.523C224.871 301.523 223.29 301.913 221.919 302.729L222.431 303.589ZM226.628 302.523V303.523C227.598 303.523 228.484 303.679 229.293 303.982L229.643 303.045L229.993 302.109C228.941 301.715 227.817 301.523 226.628 301.523V302.523ZM229.643 303.045L229.301 303.985C230.106 304.278 230.798 304.715 231.39 305.301L232.093 304.59L232.797 303.879C231.996 303.087 231.055 302.495 229.985 302.106L229.643 303.045ZM232.093 304.59L231.393 305.304C231.979 305.878 232.451 306.615 232.797 307.54L233.734 307.189L234.67 306.839C234.235 305.676 233.614 304.68 232.793 303.876L232.093 304.59ZM233.734 307.189L232.798 307.542C233.137 308.442 233.32 309.532 233.32 310.833H234.32H235.32C235.32 309.35 235.112 308.011 234.67 306.837L233.734 307.189ZM234.32 310.833H233.32V312.079H234.32H235.32V310.833H234.32ZM234.32 312.079V311.079H220.502V312.079V313.079H234.32V312.079ZM220.502 312.079H221.502V309.267H220.502H219.502V312.079H220.502ZM220.502 309.267V310.267H230.048V309.267V308.267H220.502V309.267ZM230.048 309.267H231.048C231.048 308.464 230.872 307.712 230.493 307.04L229.622 307.53L228.75 308.021C228.94 308.357 229.048 308.763 229.048 309.267H230.048ZM229.622 307.53L230.493 307.04C230.119 306.376 229.593 305.85 228.93 305.477L228.439 306.348L227.948 307.219C228.293 307.414 228.556 307.676 228.75 308.021L229.622 307.53ZM228.439 306.348L228.944 305.485C228.273 305.092 227.514 304.911 226.703 304.911V305.911V306.911C227.212 306.911 227.611 307.022 227.934 307.211L228.439 306.348ZM226.703 305.911V304.911C225.853 304.911 225.06 305.11 224.356 305.533L224.87 306.39L225.385 307.248C225.745 307.032 226.175 306.911 226.703 306.911V305.911ZM224.87 306.39L224.359 305.531C223.683 305.933 223.146 306.483 222.762 307.17L223.634 307.658L224.507 308.147C224.719 307.768 225.006 307.473 225.381 307.25L224.87 306.39ZM223.634 307.658L222.765 307.165C222.377 307.848 222.185 308.602 222.176 309.405L223.176 309.416L224.176 309.427C224.182 308.938 224.295 308.52 224.504 308.152L223.634 307.658ZM223.176 309.416H222.176V312.09H223.176H224.176V309.416H223.176ZM223.176 312.09H222.176C222.176 313.022 222.348 313.883 222.731 314.64L223.624 314.189L224.516 313.737C224.303 313.316 224.176 312.778 224.176 312.09H223.176ZM223.624 314.189L222.736 314.649C223.126 315.401 223.687 316 224.413 316.419L224.913 315.552L225.413 314.686C225.031 314.466 224.733 314.155 224.512 313.729L223.624 314.189ZM224.913 315.552L224.413 316.419C225.145 316.841 225.981 317.032 226.884 317.032V316.032V315.032C226.266 315.032 225.788 314.903 225.413 314.686L224.913 315.552ZM226.884 316.032V317.032C227.482 317.032 228.054 316.947 228.59 316.766L228.269 315.819L227.948 314.872C227.645 314.974 227.294 315.032 226.884 315.032V316.032ZM228.269 315.819L228.59 316.766C229.136 316.581 229.623 316.295 230.034 315.904L229.345 315.18L228.655 314.455C228.47 314.632 228.239 314.773 227.948 314.872L228.269 315.819ZM229.345 315.18L230.034 315.904C230.448 315.509 230.756 315.032 230.961 314.49L230.026 314.136L229.091 313.781C228.985 314.063 228.837 314.282 228.655 314.455L229.345 315.18ZM230.026 314.136L229.961 315.133L234.158 315.41L234.224 314.413L234.29 313.415L230.092 313.138L230.026 314.136ZM234.224 314.413L233.245 314.206C233.067 315.052 232.706 315.775 232.162 316.395L232.913 317.055L233.665 317.714C234.442 316.828 234.955 315.791 235.202 314.619L234.224 314.413ZM232.913 317.055L232.161 316.396C231.624 317.009 230.914 317.507 230.003 317.875L230.378 318.802L230.753 319.729C231.916 319.259 232.897 318.591 233.666 317.714L232.913 317.055ZM230.378 318.802L230.007 317.873C229.117 318.229 228.058 318.42 226.809 318.42V319.42V320.42C228.259 320.42 229.579 320.198 230.749 319.73L230.378 318.802Z" fill="black" mask="url(#path-3-outside-2_119_2067)"/>
<defs>
<filter id="filter0_dd_119_2067" x="-1.90735e-06" y="5.72205e-06" width="241.7" height="277.2" filterUnits="userSpaceOnUse" color-interpolation-filters="sRGB">
<feFlood flood-opacity="0" result="BackgroundImageFix"/>
<feColorMatrix in="SourceAlpha" type="matrix" values="0 0 0 0 0 0 0 0 0 0 0 0 0 0 0 0 0 0 127 0" result="hardAlpha"/>
<feOffset dy="4"/>
<feGaussianBlur stdDeviation="0.45"/>
<feComposite in2="hardAlpha" operator="out"/>
<feColorMatrix type="matrix" values="0 0 0 0 0 0 0 0 0 0 0 0 0 0 0 0 0 0 0.25 0"/>
<feBlend mode="normal" in2="BackgroundImageFix" result="effect1_dropShadow_119_2067"/>
<feColorMatrix in="SourceAlpha" type="matrix" values="0 0 0 0 0 0 0 0 0 0 0 0 0 0 0 0 0 0 127 0" result="hardAlpha"/>
<feOffset dy="4"/>
<feGaussianBlur stdDeviation="5.05"/>
<feComposite in2="hardAlpha" operator="out"/>
<feColorMatrix type="matrix" values="0 0 0 0 0 0 0 0 0 0 0 0 0 0 0 0 0 0 0.25 0"/>
<feBlend mode="normal" in2="effect1_dropShadow_119_2067" result="effect2_dropShadow_119_2067"/>
<feBlend mode="normal" in="SourceGraphic" in2="effect2_dropShadow_119_2067" result="shape"/>
</filter>
</defs>
</svg>
